<?xml version="1.0" standalone="no"?>
<!DOCTYPE svg PUBLIC "-//W3C//DTD SVG 20010904//EN"
 "http://www.w3.org/TR/2001/REC-SVG-20010904/DTD/svg10.dtd">
<svg version="1.0" xmlns="http://www.w3.org/2000/svg"
 width="2560.000000pt" height="2560.000000pt" viewBox="0 0 2560.000000 2560.000000"
 preserveAspectRatio="xMidYMid meet">

<g transform="translate(0.000000,2560.000000) scale(0.100000,-0.100000)"
fill="#000000" stroke="none">
<path d="M12888 24749 c-20 -11 -352 -497 -387 -567 -20 -40 -24 -62 -25 -147
0 -88 3 -108 27 -167 l28 -68 -71 -237 c-39 -131 -79 -267 -90 -303 -21 -72
-72 -244 -149 -505 -115 -389 -254 -862 -261 -890 -4 -16 -44 -154 -88 -305
-45 -151 -136 -462 -202 -690 -66 -228 -129 -444 -140 -480 -11 -36 -40 -135
-65 -220 -25 -85 -57 -174 -71 -198 -38 -65 -125 -124 -225 -152 -125 -35
-174 -55 -253 -100 -131 -75 -250 -191 -321 -312 -29 -49 -35 -67 -30 -97 3
-19 9 -39 13 -43 10 -10 189 -68 211 -68 30 0 100 -58 118 -98 23 -48 23 -49
32 -33 7 10 10 10 16 1 4 -7 2 -16 -5 -20 -9 -5 -9 -9 -1 -14 6 -4 11 -17 11
-29 0 -12 7 -35 16 -52 22 -43 20 -191 -5 -304 -40 -183 -133 -353 -306 -558
-122 -145 -118 -146 -261 53 -165 230 -493 810 -478 848 3 7 29 27 59 45 92
56 90 73 -41 262 -235 340 -331 452 -428 499 -86 43 -155 59 -521 121 -119 20
-255 106 -255 161 0 29 37 89 68 113 52 39 216 31 342 -17 40 -15 155 -92 167
-111 4 -7 22 -22 40 -33 17 -10 63 -41 102 -67 191 -130 517 -243 712 -246 50
0 73 12 84 47 5 19 -9 37 -96 120 -228 218 -309 364 -329 594 -6 70 -16 124
-30 157 -29 66 -24 76 33 72 43 -2 48 0 66 30 11 18 30 65 42 104 11 38 26 76
32 84 10 11 38 13 147 8 74 -3 142 -8 150 -11 51 -18 75 79 66 269 -7 150 -24
249 -66 384 -17 52 -30 114 -30 138 0 50 -24 43 250 73 102 11 228 30 280 41
52 11 109 22 125 25 17 3 59 14 95 24 36 11 90 26 120 34 109 29 136 39 190
65 71 35 126 71 169 108 28 25 33 35 27 56 -7 29 -11 31 -131 47 -143 20 -285
62 -285 86 0 26 39 32 240 37 219 5 227 7 201 55 -44 82 -521 215 -886 247
-44 4 -156 7 -250 6 -100 0 -181 4 -197 10 -16 7 -44 38 -70 77 -55 86 -223
255 -313 314 -78 52 -228 125 -320 156 -142 48 -262 65 -435 65 -266 -1 -474
-49 -715 -162 -102 -48 -149 -76 -353 -209 -46 -29 -153 -90 -238 -134 l-154
-80 -303 -29 c-166 -15 -340 -33 -387 -39 -228 -29 -507 -83 -550 -105 -101
-52 -71 -184 67 -296 93 -74 137 -100 259 -150 215 -88 360 -133 629 -196 90
-21 96 -27 85 -78 -5 -22 -22 -119 -39 -215 -39 -225 -90 -412 -121 -445 -44
-47 -143 -29 -236 41 -17 13 -34 20 -38 17 -3 -4 -6 -32 -6 -62 0 -50 4 -62
41 -111 22 -30 55 -70 72 -87 34 -36 24 -44 -16 -13 -34 27 -41 25 -20 -7 23
-34 126 -101 169 -109 45 -8 51 -21 25 -48 -18 -18 -33 -21 -91 -20 -60 0 -79
5 -140 37 -87 45 -110 47 -110 9 0 -50 19 -94 65 -153 25 -31 45 -60 45 -64 0
-3 -10 -4 -22 0 -35 9 66 -82 122 -110 79 -40 181 -72 275 -85 50 -7 98 -17
108 -22 32 -16 14 -68 -24 -68 -9 0 -41 11 -70 25 -30 13 -99 36 -154 52 -89
24 -117 27 -255 27 -164 0 -209 -7 -378 -55 -121 -35 -154 -35 -164 1 -4 14
-12 88 -18 165 -13 156 -40 321 -71 435 -66 246 -162 476 -218 523 -45 37
-107 38 -151 0 -45 -38 -71 -102 -191 -473 -101 -311 -115 -357 -178 -585 -94
-340 -97 -351 -131 -495 -17 -74 -37 -163 -46 -198 -8 -35 -36 -107 -63 -160
-115 -230 -176 -421 -228 -712 -24 -137 -23 -465 1 -623 l19 -117 -28 -98
c-128 -449 -146 -902 -56 -1382 21 -116 48 -209 50 -173 1 12 -5 42 -13 65
-14 43 -37 184 -35 216 1 21 10 -13 38 -144 24 -112 64 -229 86 -254 22 -24
18 -31 -9 -18 -22 10 -32 25 -50 82 -4 10 -9 16 -12 13 -14 -13 29 -108 61
-136 77 -67 170 -66 252 3 28 24 183 219 183 231 0 4 76 120 197 303 21 30 43
52 53 52 10 0 37 -16 61 -36 74 -61 93 -67 228 -72 78 -3 150 0 193 8 62 12
70 12 88 -5 29 -26 36 -11 10 24 -25 36 -11 41 25 9 65 -57 -4 -198 -106 -214
-49 -8 -66 -27 -51 -57 17 -35 30 -99 35 -165 2 -39 19 -52 67 -52 19 0 48 -7
64 -15 38 -20 39 -20 31 18 l-7 32 21 -19 c28 -25 27 -48 -5 -85 -21 -26 -33
-31 -69 -31 -55 0 -200 -25 -295 -51 -111 -31 -284 -117 -378 -189 -92 -69
-142 -127 -203 -234 -142 -248 -251 -366 -437 -475 -77 -45 -115 -83 -165
-161 -89 -141 -133 -300 -122 -445 12 -172 -21 -295 -109 -417 -73 -99 -120
-188 -151 -283 -30 -92 -45 -225 -26 -225 7 0 9 -5 4 -12 -4 -7 -8 -31 -9 -53
-8 -157 -44 -237 -152 -333 -40 -36 -79 -77 -87 -91 -17 -34 -30 -116 -17
-107 8 5 16 -49 36 -237 1 -15 6 -30 9 -34 4 -3 7 -23 7 -43 0 -20 4 -50 9
-66 5 -16 14 -56 21 -89 6 -33 18 -78 25 -100 7 -22 13 -47 13 -55 1 -8 8 -46
17 -85 34 -142 64 -305 106 -565 26 -160 41 -285 45 -368 1 -39 5 -76 8 -80 6
-10 15 -85 21 -172 30 -462 31 -450 -17 -545 -36 -72 -84 -124 -147 -158 -80
-44 -128 -50 -275 -33 -72 8 -202 21 -288 27 -148 11 -160 11 -199 -7 -59 -26
-84 -82 -69 -151 35 -156 212 -399 395 -541 98 -76 253 -152 312 -152 18 0
150 -32 268 -64 89 -25 218 -89 267 -133 24 -21 52 -45 64 -53 12 -8 40 -30
64 -47 78 -59 122 -41 279 113 59 59 102 94 115 94 30 -1 74 -64 146 -208 150
-303 288 -668 375 -992 20 -74 45 -166 56 -203 17 -58 19 -88 15 -210 -7 -175
-14 -255 -27 -279 -5 -9 -7 -36 -4 -59 4 -29 0 -50 -10 -66 -9 -13 -13 -28
-10 -34 4 -5 2 -15 -3 -22 -5 -7 -12 -25 -15 -42 -3 -16 -14 -61 -26 -100 -12
-38 -21 -81 -21 -95 0 -14 -6 -43 -14 -65 -18 -54 -19 -196 -2 -288 18 -91 52
-179 112 -287 24 -44 44 -83 44 -85 0 -3 15 -38 34 -78 47 -101 98 -269 116
-381 6 -38 13 -72 15 -75 19 -32 37 -860 20 -954 -3 -18 -7 -85 -9 -149 -3
-111 -5 -120 -32 -159 -15 -23 -61 -63 -101 -90 -39 -27 -84 -64 -98 -83 -30
-39 -62 -124 -71 -187 -3 -24 -10 -55 -15 -69 -5 -14 -13 -52 -18 -85 -12 -75
-50 -217 -62 -230 -5 -5 -9 -21 -9 -35 0 -37 -43 -167 -70 -210 -19 -30 -40
-83 -40 -101 0 -10 -9 -33 -20 -51 -11 -18 -20 -39 -20 -46 0 -14 -44 -115
-61 -142 -5 -8 -12 -24 -16 -34 -6 -18 -29 -64 -100 -196 -47 -87 -56 -98 -83
-106 -14 -3 -229 -8 -478 -9 -444 -2 -454 -3 -474 -23 -37 -37 -21 -111 58
-279 105 -222 296 -425 515 -545 68 -38 216 -95 289 -111 146 -33 241 -40 376
-27 226 21 299 23 395 11 188 -22 353 -93 505 -217 76 -62 101 -91 201 -228
167 -230 342 -372 584 -474 84 -35 158 -43 354 -37 340 10 379 23 830 252 89
45 219 103 232 103 4 0 24 8 43 19 36 19 279 102 410 139 203 59 463 106 625
113 167 8 455 1 580 -14 183 -22 468 -83 527 -113 15 -8 35 -14 45 -14 30 0
147 -49 209 -87 141 -86 328 -187 424 -227 25 -11 68 -29 95 -42 69 -30 239
-89 360 -124 251 -73 419 -94 690 -87 105 3 226 10 269 16 106 16 294 63 381
96 39 15 88 33 110 41 21 9 63 26 92 40 30 13 56 24 58 24 2 0 29 11 59 25 56
25 163 69 271 110 33 12 79 32 102 44 23 11 48 21 54 21 6 0 84 29 173 64 359
143 424 166 548 199 142 38 212 48 348 50 266 4 377 -12 625 -90 89 -28 98
-32 308 -133 220 -106 373 -153 617 -190 90 -14 354 -14 465 0 205 25 414 63
500 90 17 6 75 24 130 41 273 83 580 232 841 410 49 33 105 70 124 83 81 53
288 104 373 92 23 -3 51 -6 62 -5 109 5 155 1 245 -18 135 -30 157 -37 265
-88 135 -63 154 -71 225 -95 280 -93 607 -49 864 117 144 92 229 175 326 315
117 169 168 319 177 520 6 139 -3 182 -40 192 -12 3 -364 6 -782 6 -418 0
-776 4 -797 9 -96 22 -350 272 -465 456 -17 28 -78 152 -98 200 -15 36 -59
200 -72 265 -2 14 -11 57 -19 95 -91 447 -97 1032 -14 1492 53 294 109 449
251 700 223 394 393 852 478 1289 17 87 36 182 41 209 16 79 28 219 45 504 8
145 20 295 25 333 10 69 44 148 64 148 5 0 18 8 28 17 31 28 110 20 166 -16
58 -37 66 -51 91 -143 113 -417 165 -537 281 -647 72 -68 117 -81 322 -90 100
-4 187 -4 192 1 6 4 18 8 29 8 21 0 90 21 192 57 96 35 336 161 474 250 63 40
122 73 132 73 10 0 26 11 36 24 10 12 54 49 98 80 215 153 379 330 472 508 24
46 28 64 28 138 0 81 -2 88 -38 147 -68 111 -152 168 -318 217 -174 50 -328
44 -518 -21 -95 -32 -107 -34 -144 -23 -22 6 -54 25 -70 41 -23 24 -28 35 -22
57 7 31 55 83 93 103 15 7 44 24 65 37 22 13 49 24 60 24 59 0 68 7 61 43 -5
28 -1 40 26 74 70 87 46 193 -71 311 -49 50 -86 76 -161 113 -117 57 -152 94
-215 225 -24 52 -64 128 -89 169 -24 41 -44 76 -44 78 0 20 -187 295 -279 410
-285 357 -726 729 -1096 925 -44 23 -111 59 -150 80 -38 22 -108 54 -155 73
-47 19 -110 46 -141 61 -31 14 -62 26 -70 26 -21 0 -59 29 -59 45 0 13 97 85
114 85 4 0 12 5 19 10 7 6 41 32 77 58 216 156 292 244 362 415 32 80 49 212
31 250 -6 12 -19 67 -29 122 -10 55 -22 105 -27 112 -5 7 -6 16 -3 22 3 5 1
22 -5 38 -6 15 -27 82 -45 148 -95 330 -295 760 -458 986 -187 257 -398 427
-719 578 -135 64 -143 67 -206 90 -57 20 -70 41 -51 77 24 44 53 51 97 22 43
-27 175 -91 213 -103 14 -4 31 -12 39 -18 17 -14 74 -36 121 -47 48 -10 70
-20 70 -31 0 -5 14 -9 32 -9 17 0 72 -13 122 -30 50 -16 161 -47 246 -70 85
-22 185 -54 221 -70 170 -77 293 -66 373 33 27 34 31 46 31 102 0 59 -5 74
-70 202 -72 142 -149 276 -201 349 -96 136 -395 497 -553 667 -83 90 -97 112
-91 142 10 50 6 452 -5 556 -27 241 -58 286 -302 439 -98 61 -185 115 -193
120 -8 5 -103 62 -210 128 -107 65 -229 139 -270 164 -41 24 -146 88 -234 142
-178 109 -227 126 -305 108 -85 -19 -178 -71 -312 -171 -70 -53 -164 -118
-209 -145 -216 -131 -467 -174 -730 -126 -329 60 -834 120 -1014 120 -193 0
-487 -70 -547 -130 -36 -36 -48 -79 -25 -95 9 -7 16 -16 16 -20 0 -4 -7 -2
-15 5 -11 9 -15 9 -15 1 0 -28 30 -79 61 -104 19 -15 41 -33 49 -40 16 -14
114 -85 142 -102 38 -24 210 -144 293 -205 50 -36 135 -96 191 -133 55 -37
109 -76 119 -87 10 -11 22 -20 26 -20 10 0 127 -75 148 -95 21 -20 109 -78
145 -96 47 -23 52 -40 33 -106 -26 -83 -47 -131 -84 -188 -38 -58 -52 -130
-31 -158 8 -11 29 -20 52 -21 24 -2 47 -12 63 -29 24 -24 25 -28 14 -71 -14
-55 -14 -149 -1 -197 6 -21 23 -45 42 -59 18 -13 39 -32 47 -43 11 -15 22 -18
50 -14 69 10 129 -7 172 -49 57 -55 64 -71 43 -95 -21 -23 -59 -24 -134 -4
-69 19 -151 19 -194 1 -70 -29 -98 -78 -203 -361 -31 -82 -60 -156 -66 -163
-5 -7 -51 -33 -101 -58 -151 -75 -257 -166 -342 -294 -27 -39 -126 -217 -249
-445 -115 -212 -139 -253 -170 -282 -70 -67 -177 -69 -263 -6 -76 57 -91 117
-62 257 22 107 71 300 95 376 8 25 35 115 61 200 25 85 55 172 65 192 18 36
114 118 137 118 19 0 52 52 52 81 0 16 -8 36 -19 46 -12 11 -20 37 -23 71 -3
31 -13 60 -23 73 -12 12 -19 36 -20 64 0 26 -7 51 -17 62 -10 11 -16 33 -15
53 0 19 -3 52 -7 73 -6 28 -5 37 5 37 8 0 27 11 43 25 16 14 49 40 73 58 47
35 61 66 46 106 -8 24 -14 26 -59 25 -93 -3 -396 -71 -493 -111 -133 -55 -231
-196 -231 -331 0 -32 -6 -65 -12 -74 -7 -9 -45 -29 -84 -45 -89 -37 -212 -122
-266 -182 -97 -110 -146 -210 -182 -372 -25 -113 -36 -311 -23 -399 3 -19 8
-55 12 -80 9 -67 34 -182 66 -306 23 -86 29 -134 30 -215 1 -119 -15 -288 -36
-388 -50 -238 -48 -627 4 -764 9 -22 8 -27 -5 -27 -43 0 49 -155 153 -256 101
-99 301 -184 433 -185 19 0 46 0 60 -1 14 0 43 3 65 7 22 4 48 7 58 7 10 -1
40 10 66 24 27 13 57 24 66 24 10 0 40 14 67 30 26 17 52 30 56 30 12 0 192
178 192 189 0 19 96 110 122 116 14 4 52 2 82 -5 43 -9 62 -18 78 -40 12 -16
25 -27 30 -24 4 3 8 2 9 -3 1 -26 9 -88 18 -158 6 -44 14 -105 17 -135 3 -30
10 -72 16 -92 18 -61 -2 -93 -86 -135 -263 -132 -533 -344 -732 -576 -114
-133 -191 -248 -319 -477 -138 -246 -136 -242 -212 -375 -175 -304 -268 -463
-365 -625 -151 -251 -141 -227 -140 -355 1 -118 13 -159 64 -209 13 -13 34
-40 48 -60 14 -21 34 -49 46 -64 12 -15 24 -39 28 -54 3 -16 11 -28 16 -28 5
0 19 -19 31 -41 25 -50 20 -95 -17 -138 -34 -40 -67 -49 -224 -56 -237 -11
-448 -40 -677 -91 -166 -37 -210 -52 -245 -83 -28 -25 -33 -37 -38 -92 -6 -56
-3 -73 23 -139 88 -224 265 -362 683 -536 356 -147 791 -218 1268 -207 163 4
206 15 230 62 17 32 92 264 137 420 18 63 40 123 49 133 16 20 17 20 54 2 59
-28 119 -121 134 -207 9 -49 10 -73 2 -82 -11 -13 -4 -45 11 -45 5 0 9 -7 9
-16 0 -9 -5 -12 -11 -8 -14 8 -5 -51 13 -95 7 -14 13 -37 14 -51 8 -66 37
-169 116 -412 26 -82 48 -154 48 -160 0 -7 6 -25 14 -39 7 -15 39 -103 71
-195 31 -93 70 -205 87 -249 17 -44 48 -127 70 -185 70 -186 80 -214 103 -265
12 -27 25 -61 28 -75 3 -14 29 -47 56 -73 58 -56 133 -166 204 -298 41 -77
113 -269 129 -343 10 -50 14 -72 38 -226 6 -41 27 -113 46 -160 39 -99 49
-157 35 -220 -5 -25 -15 -72 -21 -105 -7 -33 -16 -69 -20 -80 -12 -31 -29
-112 -40 -190 -6 -38 -15 -90 -20 -115 -20 -94 -51 -391 -56 -540 -2 -85 -7
-178 -10 -205 -7 -67 -65 -170 -150 -265 -36 -41 -100 -115 -140 -165 -138
-167 -174 -209 -190 -218 -13 -7 -3012 -9 -4044 -2 -212 2 -558 4 -769 4 -413
2 -435 5 -446 54 -3 12 -14 61 -25 109 -27 121 -89 302 -149 439 -72 166 -85
226 -77 382 5 114 3 139 -20 245 -35 155 -56 223 -121 372 -60 138 -74 164
-169 310 -44 68 -52 106 -64 314 -23 367 16 818 90 1037 36 109 76 186 106
205 24 16 18 17 184 -27 295 -79 561 -272 721 -525 189 -298 239 -364 277
-364 43 0 83 40 123 123 160 334 66 680 -285 1054 -69 73 -209 189 -316 260
-96 65 -319 174 -433 212 -49 16 -97 37 -107 46 -15 14 -18 45 -25 263 -15
454 -12 605 13 712 66 291 255 679 508 1045 122 177 133 189 178 187 20 -1 49
-10 64 -21 89 -63 209 -70 346 -21 102 36 195 74 441 181 66 28 149 64 185 79
73 31 159 77 239 128 50 32 189 163 240 226 35 43 71 116 71 144 0 46 -24 106
-56 138 -35 34 -59 40 -254 64 -124 15 -302 49 -327 62 -38 19 -40 30 -79 458
-16 170 -2 627 26 855 20 164 87 505 119 608 34 108 107 318 122 352 91 210
119 270 171 368 80 149 80 151 66 200 -16 58 -43 84 -106 104 -71 23 -106 63
-98 112 3 20 9 103 12 185 14 311 -54 550 -196 691 -92 91 -95 100 -65 187 29
83 32 154 11 299 -13 92 -16 100 -70 177 -64 90 -217 250 -280 290 -23 15 -65
45 -95 67 -30 22 -73 47 -95 55 -49 19 -53 32 -33 119 9 36 28 120 42 186 14
66 30 138 35 160 47 193 83 347 104 435 65 279 95 355 161 407 38 30 115 75
212 123 72 35 80 52 68 133 -11 78 -7 310 6 412 16 127 51 264 94 375 103 266
113 305 140 506 17 131 46 196 115 260 107 99 163 159 197 212 l34 55 52 -6
c29 -3 110 -19 180 -36 70 -17 136 -31 147 -31 29 0 61 54 70 118 6 42 5 60
-5 67 -10 8 -10 13 1 23 10 9 12 28 8 70 -20 196 -97 351 -230 468 -122 108
-161 148 -202 211 -52 82 -57 111 -32 205 11 42 22 93 25 113 2 20 18 91 34
158 45 184 105 443 151 652 44 204 190 844 234 1035 19 80 44 190 56 245 11
55 27 127 35 160 28 119 45 192 69 300 41 182 155 687 166 730 5 22 19 83 30
135 46 206 50 215 156 335 126 144 135 165 142 326 7 176 -26 532 -54 582 -23
40 -49 57 -88 57 -23 0 -49 -5 -58 -11z m-6509 -2458 c28 -32 77 -76 107 -97
70 -48 54 -57 -18 -11 -69 44 -179 167 -150 167 5 0 33 -27 61 -59z m3528
-516 c30 -20 29 -40 -1 -60 -15 -10 -27 -30 -31 -52 -14 -77 -61 -113 -146
-113 -47 0 -54 3 -95 44 -43 44 -44 45 -101 40 l-58 -5 50 23 c28 12 55 26 60
30 53 40 156 103 180 109 41 11 114 2 142 -16z m1033 -2676 c0 -18 -20 1 -36
34 l-15 32 25 -28 c15 -15 26 -33 26 -38z m-5194 -106 c25 -16 72 -93 57 -93
-5 0 -8 -31 -8 -68 0 -62 -3 -72 -33 -109 -88 -111 -265 -110 -329 3 -27 47
-29 85 -6 127 29 53 46 69 98 93 74 35 147 33 208 -6 26 -16 47 -27 47 -24 0
3 -16 26 -36 50 -39 47 -38 54 2 27z m6675 -126 c-8 -8 -11 -5 -11 9 0 27 14
41 18 19 2 -9 -1 -22 -7 -28z m-3037 -1103 c11 -27 7 -37 -9 -24 -16 14 -20
40 -6 40 5 0 12 -7 15 -16z m-13 -60 c18 -20 68 -58 109 -85 184 -119 306
-210 343 -256 10 -13 24 -23 30 -23 17 0 97 -79 97 -96 0 -7 -12 -38 -26 -67
-23 -47 -26 -61 -19 -112 8 -70 10 -72 179 -182 160 -104 294 -175 318 -167
13 4 18 0 19 -13 5 -62 -2 -122 -19 -176 -11 -34 -22 -71 -25 -82 -3 -11 -32
-119 -64 -240 -33 -121 -68 -250 -78 -288 -20 -78 -47 -117 -79 -117 -16 0
-69 40 -156 116 -160 141 -194 158 -310 159 -112 2 -107 0 -126 37 -15 28 -16
50 -8 168 5 74 8 180 7 235 -4 152 -52 289 -121 347 -32 26 -76 120 -105 223
-14 52 -21 122 -27 275 -5 113 -13 238 -19 279 -8 55 -8 77 0 87 19 23 43 16
80 -22z m-3426 -870 c27 -29 33 -48 13 -42 -17 6 -62 68 -49 68 7 0 23 -12 36
-26z m-1078 -2221 c-3 -10 -5 -4 -5 12 0 17 2 24 5 18 2 -7 2 -21 0 -30z
m3625 -4454 c60 -32 150 -131 165 -182 7 -23 17 -114 23 -202 13 -186 22 -291
45 -505 15 -146 27 -206 61 -324 8 -26 14 -55 14 -63 0 -8 4 -11 10 -8 6 4 7
-1 3 -10 -3 -10 -1 -20 6 -24 6 -4 13 -25 16 -47 2 -21 9 -55 15 -74 21 -64
50 -213 65 -327 19 -142 8 -372 -19 -402 -13 -14 -14 -24 -7 -44 5 -14 8 -27
6 -28 -2 -2 -5 -17 -8 -34 -12 -74 -50 -174 -75 -198 -46 -43 -71 -40 -148 19
-154 118 -283 273 -366 439 -145 289 -180 719 -88 1055 25 89 77 297 90 360
14 64 28 367 22 481 -4 92 -3 97 19 113 27 19 119 22 151 5z m-1211 -294 c16
-9 37 -14 47 -13 14 2 17 -4 16 -37 -2 -66 -16 -159 -27 -180 -17 -33 -27
-375 -15 -540 3 -55 9 -140 13 -190 7 -106 37 -304 66 -428 11 -48 17 -92 14
-97 -12 -19 73 -259 146 -418 151 -325 443 -640 774 -833 60 -35 125 -71 145
-79 20 -8 54 -29 75 -47 l39 -32 2 -88 c1 -86 12 -146 40 -228 7 -22 21 -76
30 -120 9 -44 21 -85 26 -92 5 -7 7 -16 4 -21 -5 -9 18 -194 29 -232 5 -16 14
-95 20 -177 2 -29 9 -61 14 -72 6 -11 11 -35 10 -53 -1 -63 11 -294 19 -363 9
-80 8 -348 -2 -575 -7 -139 -18 -206 -46 -275 -9 -23 -27 -96 -34 -140 -2 -16
-16 -91 -31 -165 -39 -202 -44 -247 -50 -470 -6 -219 -27 -497 -44 -570 -6
-25 -16 -83 -22 -130 -14 -101 -40 -157 -78 -168 -46 -13 -1555 -5 -1596 8
-41 14 -56 38 -80 135 -21 85 -22 237 -1 315 7 30 32 105 54 167 72 202 86
277 86 458 0 164 -14 290 -40 351 -8 19 -29 51 -48 72 -50 56 -54 69 -71 213
-20 168 -20 456 -1 671 18 199 28 332 46 628 6 96 13 193 15 215 2 22 7 87 10
145 7 104 31 289 59 451 8 46 13 111 10 144 -41 546 -51 656 -96 1014 -24 200
-28 251 -19 285 24 87 51 185 80 291 31 110 109 437 131 550 6 33 18 89 26
125 15 72 22 111 60 344 30 190 44 227 87 249 41 20 71 21 108 2z m13564
-1309 c112 -34 164 -147 116 -251 -33 -72 -86 -105 -167 -105 -78 0 -155 46
-190 112 -30 58 -3 184 50 227 38 31 118 38 191 17z m-3957 -1643 c54 -19 70
-50 77 -145 3 -40 11 -86 17 -101 7 -18 9 -78 5 -170 -6 -150 -19 -220 -82
-422 -19 -60 -43 -145 -54 -188 -11 -43 -23 -82 -26 -87 -5 -8 -10 -28 -40
-175 -8 -38 -21 -97 -29 -130 -9 -33 -13 -68 -10 -77 3 -9 0 -34 -5 -56 -6
-21 -13 -72 -16 -113 -3 -41 -8 -85 -11 -99 -3 -14 -5 -107 -5 -207 0 -174 2
-185 27 -245 14 -35 37 -76 50 -91 13 -16 24 -32 24 -35 0 -10 160 -171 201
-203 72 -56 200 -141 231 -153 41 -17 75 -6 83 26 3 13 -4 52 -15 88 -57 175
-80 456 -55 659 21 164 40 239 202 761 118 380 126 427 126 672 0 104 -5 197
-12 225 -7 27 -19 74 -27 106 -24 92 -11 107 93 107 29 0 72 4 95 9 24 6 84
19 134 30 174 40 168 44 298 -229 61 -128 79 -214 79 -380 1 -157 -11 -231
-59 -355 -82 -220 -81 -238 74 -860 55 -217 89 -417 107 -620 3 -38 8 -279 10
-535 2 -271 8 -500 14 -550 16 -120 30 -217 40 -273 12 -73 -3 -86 -109 -92
-108 -5 -1648 -6 -1675 -1 -11 3 -77 5 -146 5 -109 1 -130 4 -150 20 l-24 19
19 127 c10 71 37 198 61 284 23 86 48 179 54 206 44 202 44 494 1 670 -6 22
-13 90 -17 152 -9 167 14 284 86 435 45 95 61 211 61 438 0 191 -14 352 -46
535 -9 54 -17 181 -21 320 -4 199 -2 252 16 390 25 180 44 231 103 278 39 31
134 58 178 50 14 -2 44 -11 68 -20z"/>
</g>
</svg>
